<svg id="Capa_1" enable-background="new 0 0 512 512" height="512" viewBox="0 0 512 512" width="512" xmlns="http://www.w3.org/2000/svg"><g><g><path d="m377 151h-21.27c-3.486-12.261-8.423-24.082-14.766-35.332l15.132-15.132c5.859-5.859 5.859-15.352 0-21.211l-42.422-42.422c-5.859-5.859-15.352-5.859-21.211 0l-15.132 15.132c-11.249-6.343-23.07-11.279-35.331-14.765v-22.27c0-8.291-6.709-15-15-15h-31-30c-8.291 0-15 6.709-15 15v22.27c-12.261 3.486-24.082 8.423-35.332 14.766l-15.132-15.132c-5.859-5.859-15.352-5.859-21.211 0l-42.422 42.421c-5.859 5.859-5.859 15.352 0 21.211l15.132 15.132c-6.343 11.25-11.279 23.071-14.765 35.332h-22.27c-8.291 0-15 6.709-15 15v60c0 8.291 6.709 15 15 15h22.27c3.486 12.261 8.423 24.082 14.766 35.332l-15.132 15.132c-5.859 5.859-5.859 15.352 0 21.211l42.422 42.422c5.859 5.859 15.352 5.859 21.211 0l15.132-15.132c11.25 6.343 23.071 11.279 35.332 14.766v21.269c0 8.291 6.709 15 15 15h30 31c8.291 0 15-6.709 15-15v-21.27c12.261-3.486 24.082-8.423 35.332-14.766l15.132 15.132c5.859 5.859 15.352 5.859 21.211 0l42.422-42.422c5.859-5.859 5.859-15.352 0-21.211l-15.132-15.132c6.343-11.25 11.279-23.071 14.766-35.332h21.268c8.291 0 15-6.709 15-15v-60c0-8.29-6.709-14.999-15-14.999zm-181 135c-49.706 0-90-40.294-90-90s40.294-90 90-90 91 40.294 91 90-41.294 90-91 90z" fill="#9cf"/><path d="m242 376v-21.27c12.261-3.486 24.082-8.423 35.332-14.766l15.132 15.132c5.859 5.859 15.352 5.859 21.211 0l42.422-42.422c5.859-5.859 5.859-15.352 0-21.211l-15.132-15.132c6.343-11.25 11.279-23.071 14.766-35.332h21.269c8.291 0 15-6.709 15-15v-60c0-8.291-6.709-15-15-15h-21.27c-3.486-12.261-8.423-24.082-14.766-35.332l15.132-15.132c5.859-5.859 5.859-15.352 0-21.211l-42.422-42.422c-5.859-5.859-15.352-5.859-21.211 0l-15.132 15.132c-11.249-6.342-23.07-11.278-35.331-14.764v-22.27c0-8.291-6.709-15-15-15h-31v106c49.706 0 91 40.294 91 90s-41.294 90-91 90v105h31c8.291 0 15-6.709 15-15z" fill="#80aaff"/><path d="m196 91c-57.99 0-105 47.01-105 105s47.01 105 105 105 106-47.01 106-105-48.01-105-106-105zm0 180c-41.353 0-75-33.647-75-75s33.647-75 75-75 76 33.647 76 75-34.647 75-76 75z" fill="#80aaff"/><path d="m302 196c0-57.99-48.01-105-106-105v30c41.353 0 76 33.647 76 75s-34.647 75-76 75v30c57.99 0 106-47.01 106-105z" fill="#6680ff"/></g><path d="m377 436h-45v30c0 24.814 20.186 46 45 46s45-21.186 45-46v-30z" fill="#e6f2ff"/><path d="m422 466v-30h-45v76c24.814 0 45-21.186 45-46z" fill="#b3ccff"/><path d="m377 121c-74.443 0-135 60.557-135 135 0 50.435 21.768 76.553 40.972 99.609 18.266 21.9 34.028 40.826 34.028 80.391 0 8.291 6.709 15 15 15h45 45c8.291 0 15-6.709 15-15 0-39.565 15.762-58.491 34.028-80.391 19.204-23.056 40.972-49.174 40.972-99.609 0-74.443-60.557-135-135-135z" fill="#ffe666"/><path d="m437 436c0-39.565 15.762-58.491 34.028-80.391 19.204-23.056 40.972-49.174 40.972-99.609 0-74.443-60.557-135-135-135v330h45c8.291 0 15-6.709 15-15z" fill="#ffc34d"/><path d="m417.605 245.395c-5.859-5.859-15.352-5.859-21.211 0l-19.394 19.394-19.395-19.395c-5.859-5.859-15.352-5.859-21.211 0s-5.859 15.352 0 21.211l25.606 25.606v53.789c0 8.291 6.709 15 15 15s15-6.709 15-15v-53.789l25.605-25.605c5.86-5.86 5.86-15.352 0-21.211z" fill="#ffc34d"/><path d="m392 346v-53.789l25.605-25.605c5.859-5.859 5.859-15.352 0-21.211s-15.352-5.859-21.211 0l-19.394 19.394v96.211c8.291 0 15-6.709 15-15z" fill="#f93"/></g></svg>